<?xml version="1.0" encoding="UTF-8"?>
<svg version="1.1" xmlns="http://www.w3.org/2000/svg" width="500" height="500">
<path d="M0 0 C165 0 330 0 500 0 C500 165 500 330 500 500 C335 500 170 500 0 500 C0 335 0 170 0 0 Z " fill="#EA4C08" transform="translate(0,0)"/>
<path d="M0 0 C1.16537544 -0.00935994 1.16537544 -0.00935994 2.35429382 -0.01890898 C4.94223922 -0.03478851 7.52923611 -0.022255 10.1171875 -0.00964355 C11.97876533 -0.01506693 13.84033886 -0.0221908 15.7019043 -0.03088379 C20.7473608 -0.04909443 25.79248955 -0.04205889 30.83795166 -0.02936745 C36.12244539 -0.01922811 41.40691139 -0.02863572 46.69140625 -0.03491211 C55.56515533 -0.04218578 64.43877116 -0.03260812 73.3125 -0.0135498 C83.56625547 0.00821835 93.81969279 0.00116679 104.07344055 -0.02085543 C112.88298767 -0.03901736 121.69243911 -0.04156385 130.5019989 -0.03110075 C135.7609885 -0.02487021 141.01982864 -0.02401817 146.27880859 -0.0372467 C151.223428 -0.04881607 156.16763789 -0.04075947 161.11221313 -0.01766968 C162.9250114 -0.01238842 164.73784423 -0.01388639 166.55062866 -0.02272034 C169.02900664 -0.03368274 171.50607974 -0.01990492 173.984375 0 C174.69849045 -0.00892289 175.4126059 -0.01784577 176.14836121 -0.02703905 C181.57880424 0.05732103 184.61882085 1.50700913 188.9921875 4.50793457 C192.11429637 8.99535231 192.41272049 13.12480745 192.33276367 18.44104004 C192.33320175 19.21244827 192.33363983 19.98385651 192.33409119 20.77864075 C192.33201255 23.31106481 192.30872594 25.84281464 192.28515625 28.37512207 C192.27955699 30.1377425 192.27528845 31.90036761 192.27229309 33.66299438 C192.26087028 38.28923564 192.23142531 42.91519175 192.19818115 47.5413208 C192.16201186 53.09885771 192.14830689 58.65649026 192.13082123 64.21411133 C192.10178631 72.6455837 192.04428146 81.07643115 191.9921875 89.50793457 C169.8821875 89.83793457 147.7721875 90.16793457 124.9921875 90.50793457 C131.5921875 94.46793457 138.1921875 98.42793457 144.9921875 102.50793457 C148.93950659 104.95300577 152.87954263 107.40328586 156.8046875 109.88293457 C158.60182173 111.01740076 160.4000635 112.15011375 162.19921875 113.28137207 C163.67128784 114.26968018 163.67128784 114.26968018 165.1730957 115.2779541 C168.25439564 117.2228777 171.43381529 118.51612061 174.81713867 119.85900879 C181.45423503 122.75317779 187.4815191 125.68247954 191.9921875 131.50793457 C195.62474078 141.98485382 194.44569713 153.55544315 193.80462646 164.45227051 C193.63771787 167.69944581 193.57257795 170.94500289 193.512393 174.19565392 C193.43851645 178.10032405 193.32215607 182.00322987 193.19140625 185.90637207 C193.16721807 186.63894604 193.1430299 187.37152 193.11810875 188.12629318 C192.53589168 203.32977403 192.53589168 203.32977403 187.9921875 209.50793457 C183.19464284 211.98971667 179.41105728 212.92055094 173.9621582 213.16589355 C173.29766159 213.19845749 172.63316498 213.23102142 171.9485321 213.26457214 C165.04244711 213.57897899 158.12782079 213.71313993 151.21606445 213.83288574 C147.94637318 213.89524998 144.68609947 214.01344971 141.42016602 214.18151855 C115.12328969 215.50335037 115.12328969 215.50335037 108.38803101 210.61968994 C104.29989796 206.00316857 102.04795954 200.87034231 100.01631165 195.10494995 C98.31784785 190.79791683 95.75381437 187.08460492 93.1796875 183.25793457 C92.63997314 182.40683105 92.10025879 181.55572754 91.54418945 180.67883301 C91.11066162 179.99853027 90.67713379 179.31822754 90.23046875 178.61730957 C85.74147927 171.55128146 81.32046609 164.44263816 76.89135742 157.33898926 C76.28267822 156.36349121 75.67399902 155.38799316 75.046875 154.38293457 C74.50530762 153.51410645 73.96374023 152.64527832 73.40576172 151.75012207 C72.29370376 149.98619455 71.14885555 148.24293665 69.9921875 146.50793457 C69.6621875 168.28793457 69.3321875 190.06793457 68.9921875 212.50793457 C49.55724111 212.66836981 49.55724111 212.66836981 41.25195312 212.70324707 C35.59205057 212.72712819 29.93240767 212.75533338 24.27270508 212.80969238 C19.70801008 212.85325831 15.14359366 212.87709442 10.57870674 212.88744354 C8.84001851 212.89481566 7.10134496 212.90921179 5.3627758 212.9308548 C2.92112549 212.96003241 0.48061587 212.9638847 -1.96118164 212.96203613 C-2.67472305 212.97641724 -3.38826447 212.99079834 -4.12342834 213.00561523 C-9.62503756 212.96075444 -12.66740452 211.70624157 -17.0078125 208.50793457 C-19.90958966 203.90825381 -20.44176572 199.94385106 -20.40222168 194.62710571 C-20.40831278 193.85174874 -20.41440389 193.07639177 -20.42067957 192.27753913 C-20.43727967 189.68898533 -20.43253811 187.10092504 -20.42773438 184.5123291 C-20.43507646 182.65252167 -20.4436631 180.7927188 -20.45339966 178.93292236 C-20.47560998 173.88740649 -20.47854657 168.84205396 -20.47665215 163.79649591 C-20.47653242 159.58181748 -20.48509747 155.36717361 -20.49342966 151.1525048 C-20.51266211 141.20764411 -20.51554816 131.26286736 -20.50878906 121.31799316 C-20.50214855 111.06481087 -20.52501353 100.81198835 -20.56210279 90.55887902 C-20.59280876 81.75019227 -20.60415883 72.94162119 -20.60026598 64.132882 C-20.59819937 58.87434736 -20.60366421 53.61609268 -20.62815857 48.3576088 C-20.65043778 43.41131529 -20.64853797 38.46560629 -20.62823105 33.51931 C-20.62482307 31.70692108 -20.62990097 29.89449273 -20.64421463 28.08215714 C-20.76506626 11.6424336 -20.76506626 11.6424336 -16.76352692 6.00680351 C-11.40922736 1.43579057 -6.98209095 -0.08724137 0 0 Z " fill="#FEFDFD" transform="translate(164.0078125,143.4920654296875)"/>
</svg>
